<svg width="17" height="17" viewBox="0 0 17 17" fill="none" xmlns="http://www.w3.org/2000/svg">
<g clip-path="url(#clip0_10_2)">
<path d="M9 13.5809H10.4545V4.35688L15.1047 6.30103C15.2356 6.35578 15.3472 6.44682 15.4255 6.56287C15.5039 6.67891 15.5456 6.81485 15.5455 6.9538V13.5809H17V15H1V13.5809H2.45455V4.10854C2.45453 3.97126 2.49533 3.83692 2.57201 3.72181C2.64869 3.6067 2.75795 3.51576 2.88655 3.46002L8.48873 1.03056C8.54415 1.00653 8.60485 0.996416 8.66531 1.00113C8.72576 1.00583 8.78405 1.02522 8.83486 1.05752C8.88568 1.08982 8.9274 1.134 8.95625 1.18605C8.98509 1.2381 9.00013 1.29636 9 1.35553V13.5809Z" fill="white"/>
</g>
<defs>
<clipPath id="clip0_10_2">
<rect width="17" height="17" fill="white"/>
</clipPath>
</defs>
</svg>
