<svg width="14" height="14" viewBox="0 0 14 14" fill="none" xmlns="http://www.w3.org/2000/svg">
<path d="M7 0C10.864 0 14 3.136 14 7C14 10.864 10.864 14 7 14C3.136 14 0 10.864 0 7C0 3.136 3.136 0 7 0ZM7 12.6C10.0989 12.6 12.6 10.0989 12.6 7C12.6 3.9011 10.0989 1.4 7 1.4C6.26434 1.39908 5.53572 1.5433 4.85588 1.8244C4.17604 2.1055 3.55834 2.51796 3.03815 3.03815C2.51796 3.55834 2.1055 4.17604 1.8244 4.85588C1.5433 5.53572 1.39908 6.26434 1.4 7C1.4 10.0989 3.9011 12.6 7 12.6ZM7 11.2C4.676 11.2 2.8 9.324 2.8 7C2.8 4.676 4.676 2.8 7 2.8C9.324 2.8 11.2 4.676 11.2 7C11.2 9.324 9.324 11.2 7 11.2ZM7 5.6C6.23 5.6 5.6 6.23 5.6 7C5.6 7.77 6.23 8.4 7 8.4C7.77 8.4 8.4 7.77 8.4 7C8.4 6.23 7.77 5.6 7 5.6Z" fill="#111010"/>
</svg>
