<svg width="129" height="32" viewBox="0 0 129 32" fill="none" xmlns="http://www.w3.org/2000/svg">
<path fill-rule="evenodd" clip-rule="evenodd" d="M16.4098 6L30 12.6848V27H19.8104V24.0049H26.9948V14.5466L16.4193 9.3447L6.00522 14.5407V21.0098H3V12.6907L16.4098 6ZM16.4145 12.7735L22.8157 15.9632V21.0098H19.8104V17.8143L16.4145 16.1221L13.0186 17.8143V27H3V24.0049H10.0134V15.9632L16.4145 12.7735Z" fill="white"/>
<path d="M46.5282 21.0083H41.5448V19.5744H43.1061V15.5044C43.1061 14.5485 42.9136 13.8737 42.5286 13.48C42.1436 13.0723 41.6374 12.8685 41.0101 12.8685C40.2401 12.8685 39.6198 13.1286 39.1493 13.6487C38.6787 14.1548 38.4292 14.7383 38.4007 15.399V19.5744H39.962V21.0083H35V19.5744H36.5399V7.95505H35V6.5H38.4007V13.2059C39.0994 11.9969 40.1902 11.3923 41.6731 11.3923C42.5999 11.3923 43.3841 11.6735 44.0258 12.2358C44.6674 12.7982 44.9882 13.6768 44.9882 14.8718V19.5744H46.5282V21.0083Z" fill="white"/>
<path d="M56.2114 16.3058C56.2114 17.7538 55.7551 18.9347 54.8426 19.8485C53.9443 20.7623 52.7537 21.2192 51.2708 21.2192C49.8164 21.2192 48.6614 20.7764 47.8059 19.8907C46.9646 19.005 46.544 17.8381 46.544 16.3901C46.544 15.0124 46.9504 13.8315 47.7631 12.8474C48.5759 11.8633 49.7879 11.3713 51.3991 11.3713C53.0103 11.3713 54.2152 11.8633 55.0137 12.8474C55.8122 13.8174 56.2114 14.9702 56.2114 16.3058ZM54.2437 16.2425C54.2437 15.2022 53.9799 14.3798 53.4523 13.7753C52.939 13.1707 52.2404 12.8685 51.3563 12.8685C50.4295 12.8685 49.7166 13.1918 49.2175 13.8385C48.7327 14.4711 48.4903 15.2865 48.4903 16.2847C48.4903 17.2407 48.7256 18.056 49.1961 18.7309C49.6809 19.3916 50.3938 19.722 51.3349 19.722C52.2617 19.722 52.9747 19.3986 53.4737 18.7519C53.987 18.0912 54.2437 17.2547 54.2437 16.2425Z" fill="white"/>
<path d="M74.3262 21.0083H69.9203V19.5744H70.9041V15.5044C70.9041 14.5485 70.7188 13.8737 70.348 13.48C69.9916 13.0723 69.5068 12.8685 68.8936 12.8685C68.0666 12.8685 67.4464 13.1637 67.0329 13.7542C66.6336 14.3446 66.4269 14.9421 66.4126 15.5466V19.5744H67.9526V21.0083H63.5466V19.5744H64.5305V15.5044C64.5305 14.5344 64.3451 13.8526 63.9744 13.4589C63.6179 13.0653 63.1402 12.8685 62.5414 12.8685C61.7286 12.8685 61.1155 13.1567 60.702 13.7331C60.2885 14.3095 60.0746 14.8999 60.0604 15.5044V19.5744H61.8356V21.0083H56.6383V19.5744H58.1782V13.0372H56.6169V11.5821H60.0604V13.2481C60.3598 12.6998 60.7662 12.2569 61.2795 11.9195C61.7928 11.5681 62.4202 11.3923 63.1616 11.3923C63.8888 11.3923 64.5305 11.5751 65.0866 11.9406C65.6427 12.2921 66.0276 12.8404 66.2415 13.5855C66.5267 12.9388 66.9473 12.4116 67.5034 12.0039C68.0595 11.5962 68.7368 11.3923 69.5353 11.3923C70.4336 11.3923 71.1964 11.6735 71.8238 12.2358C72.4512 12.7982 72.7649 13.6768 72.7649 14.8718V19.5744H74.3262V21.0083Z" fill="white"/>
<path d="M83.107 18.2248C83.0072 19.0401 82.6008 19.7431 81.8878 20.3335C81.1749 20.924 80.2053 21.2192 78.9791 21.2192C77.596 21.2192 76.4767 20.8115 75.6211 19.9961C74.7656 19.1807 74.3379 17.9998 74.3379 16.4534C74.3379 14.9913 74.7371 13.7823 75.5356 12.8263C76.3341 11.8703 77.4391 11.3923 78.8507 11.3923C80.1625 11.3923 81.182 11.793 81.9092 12.5943C82.6364 13.3957 83.0072 14.3657 83.0214 15.5044C83.0214 15.884 82.9786 16.2847 82.8931 16.7064H76.3056C76.3911 18.7027 77.3251 19.7009 79.1074 19.7009C79.8489 19.7009 80.4049 19.5252 80.7757 19.1737C81.1607 18.8222 81.4173 18.4005 81.5456 17.9084L83.107 18.2248ZM81.0751 15.4623C81.1321 14.8437 80.9753 14.2532 80.6046 13.6909C80.2481 13.1145 79.6492 12.8263 78.808 12.8263C78.0237 12.8263 77.432 13.0864 77.0328 13.6065C76.6478 14.1127 76.4125 14.7312 76.3269 15.4623H81.0751Z" fill="white"/>
<path d="M84.4537 10.6964C85.0668 10.4012 85.7298 10.1833 86.4428 10.0427C87.1557 9.88809 87.8116 9.81077 88.4105 9.81077C89.8934 9.81077 90.9414 10.1622 91.5545 10.8651C92.1677 11.554 92.4742 12.2851 92.4742 13.0583C92.4742 14.0142 92.1249 14.8788 91.4262 15.6521C90.7275 16.4253 89.8863 17.1212 88.9024 17.7397C87.9328 18.3442 87.0345 18.8785 86.2075 19.3424H91.4904L91.6615 17.803L93.2442 17.9295L92.9875 21.0083H84.0045L83.8334 19.5111C85.7584 18.2458 87.334 17.1493 88.5602 16.2214C89.7865 15.2795 90.3996 14.3095 90.3996 13.3113C90.3996 12.0742 89.6153 11.4556 88.0469 11.4556C87.7617 11.4556 87.4195 11.4978 87.0203 11.5821C86.621 11.6524 86.2574 11.7579 85.9295 11.8984L85.5873 13.4589L84.0687 13.2902L84.4537 10.6964Z" fill="white"/>
<path d="M101.881 18.2458C101.881 19.1878 101.482 19.9188 100.683 20.439C99.8991 20.9591 98.901 21.2192 97.689 21.2192C96.2204 21.2192 94.9727 20.9099 93.9461 20.2913L94.2455 18.0139L95.7213 18.1615L95.6785 19.3846C95.9637 19.5252 96.2703 19.6236 96.5982 19.6798C96.9404 19.736 97.2755 19.7642 97.6035 19.7642C98.2166 19.7642 98.7656 19.6517 99.2504 19.4267C99.7494 19.2018 99.9989 18.8504 99.9989 18.3724C99.9989 17.9084 99.7993 17.5851 99.4001 17.4023C99.0008 17.2055 98.5018 17.0579 97.9029 16.9595C97.3183 16.8611 96.7337 16.7416 96.1491 16.601C95.5645 16.4464 95.0725 16.1933 94.6733 15.8418C94.2741 15.4763 94.0744 14.928 94.0744 14.197C94.0744 13.1426 94.4665 12.4116 95.2508 12.0039C96.0493 11.5962 96.8977 11.3923 97.796 11.3923C98.4519 11.3923 99.065 11.4767 99.6353 11.6454C100.22 11.8 100.748 12.0039 101.218 12.2569L101.432 14.5344L99.9348 14.7031L99.7209 13.227C99.1363 12.9599 98.5232 12.8263 97.8815 12.8263C97.3539 12.8263 96.919 12.9247 96.5768 13.1215C96.2346 13.3184 96.0635 13.6417 96.0635 14.0916C96.0635 14.5274 96.256 14.8367 96.641 15.0194C97.0402 15.2022 97.525 15.3428 98.0954 15.4412C98.68 15.5255 99.2575 15.645 99.8278 15.7997C100.412 15.9543 100.897 16.2144 101.282 16.5799C101.681 16.9454 101.881 17.5007 101.881 18.2458Z" fill="white"/>
<path d="M109.83 18.3513C109.559 20.2632 108.49 21.2192 106.622 21.2192C105.638 21.2192 104.868 20.9591 104.312 20.439C103.77 19.9047 103.5 19.1667 103.5 18.2248V12.995H102.024V11.5821H103.5V8.60877H105.36V11.5821H109.018V12.995H105.36V17.9506C105.36 19.0753 105.852 19.6376 106.836 19.6376C107.15 19.6376 107.463 19.5392 107.777 19.3424C108.091 19.1315 108.312 18.6535 108.44 17.9084L109.83 18.3513Z" fill="white"/>
<path d="M110.627 12.2991C111.211 11.9617 111.782 11.7297 112.338 11.6032C112.908 11.4626 113.529 11.3923 114.199 11.3923C115.282 11.3923 116.138 11.6524 116.765 12.1726C117.407 12.6927 117.728 13.4941 117.728 14.5766V18.9417C117.728 19.5603 117.977 19.8696 118.476 19.8696C118.676 19.8696 118.868 19.8344 119.054 19.7642L119.075 20.8607C118.676 21.0997 118.212 21.2192 117.685 21.2192C116.53 21.2192 115.917 20.5866 115.846 19.3213V19.3002C115.56 19.7923 115.147 20.2351 114.605 20.6287C114.077 21.0224 113.429 21.2192 112.659 21.2192C112.003 21.2192 111.347 21.0224 110.691 20.6287C110.049 20.2351 109.729 19.5462 109.729 18.5622C109.729 17.3812 110.199 16.608 111.14 16.2425C112.096 15.8629 113.115 15.6731 114.199 15.6731C114.855 15.6731 115.404 15.7013 115.846 15.7575V15.0616C115.846 14.443 115.724 13.9158 115.482 13.48C115.24 13.0442 114.698 12.8263 113.856 12.8263C113.172 12.8263 112.595 12.9458 112.124 13.1848L111.76 14.7242L110.242 14.5555L110.627 12.2991ZM115.846 17.3812V16.833C115.589 16.8048 115.318 16.7838 115.033 16.7697C114.762 16.7416 114.484 16.7275 114.199 16.7275C113.543 16.7275 112.958 16.833 112.445 17.0438C111.932 17.2547 111.675 17.6905 111.675 18.3513C111.675 18.8574 111.832 19.2229 112.145 19.4478C112.473 19.6728 112.844 19.7852 113.258 19.7852C113.871 19.7852 114.441 19.5744 114.969 19.1526C115.496 18.7309 115.789 18.1404 115.846 17.3812Z" fill="white"/>
<path d="M129 13.0372H127.931L124.637 21.0083L123.46 24.0239H124.979V25.5H120.017V24.0239H121.707L122.819 21.0294L119.375 13.0372H118.285V11.5821H122.84V13.0372H121.386L123.845 18.773H123.974L126.091 13.0372H124.744V11.5821H129V13.0372Z" fill="white"/>
</svg>
