<svg width="18" height="17" viewBox="0 0 18 17" fill="none" xmlns="http://www.w3.org/2000/svg">
<path d="M13.9157 12.2324L17.5 15.8158L16.3158 17L12.7324 13.4157C11.3991 14.4846 9.74062 15.0659 8.03175 15.0635C3.87422 15.0635 0.5 11.6893 0.5 7.53175C0.5 3.37422 3.87422 0 8.03175 0C12.1893 0 15.5635 3.37422 15.5635 7.53175C15.5659 9.24062 14.9846 10.8991 13.9157 12.2324ZM12.237 11.6115C13.2991 10.5193 13.8922 9.0552 13.8898 7.53175C13.8898 4.29477 11.2679 1.67372 8.03175 1.67372C4.79477 1.67372 2.17372 4.29477 2.17372 7.53175C2.17372 10.7679 4.79477 13.3898 8.03175 13.3898C9.5552 13.3922 11.0193 12.7991 12.1115 11.737L12.237 11.6115Z" fill="white"/>
</svg>
